<?xml version="1.0" encoding="utf-8"?>
<!-- Generator: Adobe Illustrator 25.2.1, SVG Export Plug-In . SVG Version: 6.00 Build 0)  -->
<svg version="1.1" xmlns="http://www.w3.org/2000/svg" xmlns:xlink="http://www.w3.org/1999/xlink" x="0px" y="0px"
	 viewBox="0 0 622.6 941.8" style="enable-background:new 0 0 622.6 941.8;" xml:space="preserve">
<style type="text/css">
	.st0{fill:none;}
	.st1{fill:#0D2C6A;}
	.st2{fill:#041E3A;}
	.st3{fill:#0A7DB1;}
</style>
<g id="shape1">
	<rect x="343" y="826.2" class="st0" width="59.4" height="115.6"/>
	<g id="Mask_Group_14200" transform="translate(342.086 793.637)">
		<path class="st1" d="M60.3,32.5v115.6c-0.2,0-0.4,0-0.5,0C27.3,148.1,1,122.2,1,90.3s26.4-57.8,58.8-57.8
			C60,32.5,60.1,32.5,60.3,32.5z"/>
	</g>
</g>
<g id="shape2">
	<path id="Path_13351" class="st2" d="M462.6,759.2h-60.2v64.5c0,33.3,27,60.2,60.2,60.2s60.2-27,60.2-60.2v-4.3
		C522.9,786.1,495.9,759.2,462.6,759.2C462.6,759.2,462.6,759.2,462.6,759.2z"/>
</g>
<g id="shape3">
	<path id="Subtraction_12" class="st1" d="M497.7,759.8h-94.9v-89.1c0.2-23.3,9.7-45.5,26.2-61.8c34.7-34.2,90.5-34.1,125,0.3
		c34.5,34.4,34.5,90.3,0,124.7C539,749,519,758.1,497.7,759.5V759.8L497.7,759.8z M491.7,610.7c-33.1-0.2-60,26.5-60.2,59.6
		s26.5,60,59.6,60.2s60-26.5,60.2-59.6c0-0.1,0-0.2,0-0.3C551.4,637.6,524.7,610.8,491.7,610.7z"/>
</g>
<g id="shape4">
	<path class="st3" d="M375.9,650.8c24.3,37.5,18.9,86.9-12.9,118.3c-37.1,36.6-96.8,36.3-133.4-0.8c-36.6-37.1-36.3-96.8,0.8-133.4
		c37.1-36.6,96.8-36.3,133.4,0.8c-7.7-8.4-16.4-16-25.9-22.4c-67.6-45.9-159.6-28.3-205.5,39.3c-10.8,15.9-18.3,33.7-22.2,52.5
		c-2,9.7-3,19.7-3,29.6c0,1,0,2,0,3c0,0.2,0,0.4,0,0.5v138.3c0,2.8,2.2,5,5,5h148c0.4,0,0.8,0,1.2-0.1c47.4-2,91-26.8,117-66.5
		C411.3,764.9,410.3,699.9,375.9,650.8z"/>
	<g id="Layer_13">
	</g>
</g>
<g id="shape5">
	<path id="Subtraction_6" class="st2" d="M372.6,593.5c-19.8,0-38.9-7.7-53-21.6c-6.9-6.7-12.3-14.7-16.2-23.5
		c-4-9.1-6-18.9-6.1-28.8v-0.8v-29.3c0.3,22.4,18.6,40.3,41,40c22.1-0.3,40-18.3,40-40.4v-4.4c-0.1-22.2-17.9-40.2-40.1-40.5h34.4
		h5.3v0.2c18.9,1.3,36.6,9.7,49.7,23.4c24,25.3,27.1,63.9,7.5,92.7C420.9,581.2,397.6,593.5,372.6,593.5z"/>
</g>
<g id="shape6_1_">
	<path class="st3" d="M587.9,463.2c-29.1-28.7-75.9-28.6-104.9,0.2c-28.9,28.9-28.9,75.7,0,104.6c12.7,12.7,29.5,20.3,47.3,21.5v0.2
		h79.6V515C609.7,495.5,601.8,476.9,587.9,463.2z"/>
</g>
<g id="shape7">
	<path id="Subtraction_5" class="st1" d="M157.8,602.8c-10.7,0-21.3-1.1-31.8-3.2c-20.2-4.1-39.4-12.2-56.4-23.7
		c-25.4-17.1-45.2-41.2-57.2-69.4c-4-9.5-7.1-19.5-9.2-29.6c-4.3-21-4.3-42.6,0-63.6c4.1-20.2,12.2-39.4,23.7-56.4
		c17.1-25.4,41.2-45.2,69.4-57.2c9.5-4,19.5-7.1,29.6-9.2c23.3-4.7,47.3-4.2,70.3,1.5c-28.4,13.8-46.4,42.6-46.5,74.2
		c0,44.7,36.3,81.6,80.9,82.3c0.1,0,0.2,0,0.3,0h0.6h0.4h0.4h76.6c2.8,0,5-2.2,5-5v-20c2.4,17.8,1.8,35.8-1.7,53.4
		c-4.1,20.2-12.2,39.4-23.7,56.4c-17.1,25.4-41.2,45.2-69.4,57.2c-9.5,4-19.5,7.1-29.6,9.2C179.1,601.7,168.5,602.8,157.8,602.8z"/>
</g>
<g id="shape8">
	<path id="Subtraction_3" class="st2" d="M475.3,454.9H305.6V295.6h0c0.1-10.6,1.3-21.2,3.5-31.5c4.3-20,12.5-39,24.1-55.9
		c49.6-72.3,148.4-90.7,220.7-41.1c24.9,17.1,44.4,40.9,56.2,68.6c4.1,9.5,7.1,19.5,9.2,29.6c17.4,85.6-37.9,169-123.4,186.4
		c-6.8,1.4-13.7,2.3-20.6,2.8V454.9L475.3,454.9z M464.7,211.4c-46.1,0-83.5,37.7-83.5,84s37.5,84,83.5,84s83.5-37.7,83.5-84
		S510.7,211.4,464.7,211.4z"/>
</g>
<g id="shape9">
	<path id="Rectangle_4742" class="st3" d="M274.7,368.9L274.7,368.9c22.6,0,40.9,18.3,40.9,40.9c0,0,0,0,0,0v45.2l0,0h-40.9
		c-22.6,0-40.9-18.3-40.9-40.9c0,0,0,0,0,0v-4.3C233.8,387.2,252.1,368.9,274.7,368.9C274.7,368.9,274.7,368.9,274.7,368.9z"/>
</g>
<g id="shape10_1_">
	<path id="Subtraction_8" class="st2" d="M179,297.1C128.1,285.6,92,240.3,92,188.1c0-22.3,6.7-44.1,19.2-62.6
		c34.9-51.5,105-65,156.5-30.1c17.9,12.1,31.9,29.2,40.4,49.1c15.9,37.5,10.1,80.7-15.2,112.7c-15.3,19.4-36.5,33.2-60.4,39.3
		c24.2-10.7,39.8-34.6,39.9-61c0-36.8-30.2-66.8-67.4-66.8s-67.4,30-67.4,66.8C137.7,262.5,154,286.9,179,297.1L179,297.1z"/>
</g>
<g id="shape11_1_">
	<rect x="311.9" y="33.6" class="st0" width="81.8" height="159.2"/>
	<g id="Mask_Group_14198" transform="translate(310.939 1.061)">
		<path class="st3" d="M82.7,112.1c0,44-36.3,79.6-81,79.6c-0.2,0-0.5,0-0.7,0V32.5c0.2,0,0.5,0,0.7,0
			C46.4,32.5,82.7,68.2,82.7,112.1z"/>
	</g>
</g>
<g id="shape12">
	<path id="Path_13353" class="st1" d="M266,92.1h44.5V44.5c0.1-24.6-19.7-44.6-44.2-44.7S221.6,19.5,221.5,44c0,0.1,0,0.3,0,0.4v3.2
		C221.5,72.2,241.4,92.1,266,92.1z"/>
</g>
</svg>
