<svg xmlns="http://www.w3.org/2000/svg" width="435.962" height="735.737" viewBox="0 0 435.962 735.737">
  <g id="Group_23289" data-name="Group 23289" transform="translate(13.509 -740.888)">
    <path id="Subtraction_9" data-name="Subtraction 9" d="M136.724,263.3H5a5.006,5.006,0,0,1-5-5V135.322a5.073,5.073,0,0,1,.035-.6C.012,133.71,0,132.676,0,131.652A131.929,131.929,0,0,1,2.689,105.12,130.552,130.552,0,0,1,22.606,58.044,132.343,132.343,0,0,1,105.689,2.676a134.366,134.366,0,0,1,53.352,0,132.286,132.286,0,0,1,95.288,77.732,130.47,130.47,0,0,1,7.713,24.712,132.245,132.245,0,0,1,.129,52.429,130.5,130.5,0,0,1-19,46.145,132.35,132.35,0,0,1-105.413,59.5A5.042,5.042,0,0,1,136.724,263.3ZM132.788,47.412a84.663,84.663,0,1,0,84.578,84.663A84.717,84.717,0,0,0,132.788,47.412Z" transform="translate(277.385 1232.115) rotate(180)" fill="#113191"/>
    <path id="Path_13350" data-name="Path 13350" d="M53.921,0h53.921V57.773A53.921,53.921,0,1,1,0,57.773V53.921A53.921,53.921,0,0,1,53.921,0Z" transform="translate(84.884 1238.337)" fill="#0a7db1"/>
    <path id="Rectangle_4816" data-name="Rectangle 4816" d="M0,0H114.863A114.863,114.863,0,0,1,229.727,114.863v8.561A114.863,114.863,0,0,1,114.863,238.288h0A114.863,114.863,0,0,1,0,123.425V0A0,0,0,0,1,0,0Z" transform="translate(192.727 1238.337)" fill="#0f244e"/>
    <path id="Subtraction_16" data-name="Subtraction 16" d="M113.487,0A113.554,113.554,0,0,0,9.237,68.281a111.84,111.84,0,0,0-9.23,43.588H0V226.022H121.511v-.278A113.215,113.215,0,0,0,226.972,113.011,112.421,112.421,0,0,0,193.733,33.1,113.37,113.37,0,0,0,113.487,0Zm6.581,189.74c-42.1,0-76.348-34.42-76.348-76.729s34.25-76.729,76.348-76.729,76.348,34.42,76.348,76.729S162.167,189.74,120.068,189.74Z" transform="translate(-13.509 967.86) rotate(-90)" fill="#0f244e"/>
  </g>
</svg>
