<svg xmlns="http://www.w3.org/2000/svg" xmlns:xlink="http://www.w3.org/1999/xlink" width="374.889" height="1117" viewBox="0 0 374.889 1117">
  <defs>
    <clipPath id="clip-path">
      <rect id="Rectangle_4826" data-name="Rectangle 4826" width="79.492" height="154.801" transform="translate(0 0)" fill="#fff" stroke="#707070" stroke-width="1"/>
    </clipPath>
    <clipPath id="clip-path-2">
      <rect id="Rectangle_4828" data-name="Rectangle 4828" width="79.492" height="154.801" transform="translate(0 0)" fill="#d1d6e1" stroke="#707070" stroke-width="1"/>
    </clipPath>
  </defs>
  <g id="Group_23280" data-name="Group 23280" transform="translate(0 0)">
    <g id="Group_23287" data-name="Group 23287" transform="translate(0 0)">
      <path id="Subtraction_9" data-name="Subtraction 9" d="M152.494,303.343a154.436,154.436,0,0,1-30.551-3.045A152.42,152.42,0,0,1,12.412,211.7a150.418,150.418,0,0,1-12.4-58.5H0V0H163.276V.373A152.556,152.556,0,0,1,263.828,48.024a150.89,150.89,0,0,1,15.116,188.448,152.468,152.468,0,0,1-95.717,63.789A154.424,154.424,0,0,1,152.494,303.343Zm.487-249.7a97.538,97.538,0,1,0,97.441,97.538A97.6,97.6,0,0,0,152.981,53.645Z" transform="translate(304.988 851.377) rotate(180)" fill="#fff"/>
      <path id="Path_13350" data-name="Path 13350" d="M62.121,128.68h62.121V62.121A62.121,62.121,0,1,0,0,62.121v4.437A62.121,62.121,0,0,0,62.121,128.68Z" transform="translate(78.432 412.187)" fill="#d1d6e1"/>
      <path id="Rectangle_4816" data-name="Rectangle 4816" d="M83.717,0h0a83.717,83.717,0,0,1,83.717,83.717v5.974a83.717,83.717,0,0,1-83.717,83.717H0a0,0,0,0,1,0,0V83.717A83.717,83.717,0,0,1,83.717,0Z" transform="translate(207.456 367.459)" fill="#fff"/>
      <path id="Subtraction_16" data-name="Subtraction 16" d="M92.548,184.122A92.525,92.525,0,0,1,7.532,128.5,91.026,91.026,0,0,1,0,92.991H0V0H99.092V.227a92.383,92.383,0,0,1,48.332,17.7A93.135,93.135,0,0,1,160.117,29.15a91.594,91.594,0,0,1,9.174,114.383,92.561,92.561,0,0,1-76.742,40.589ZM93.157,40.8c-25.983,0-47.122,20.86-47.122,46.5s21.139,46.5,47.122,46.5,47.122-20.86,47.122-46.5S119.14,40.8,93.157,40.8Z" transform="translate(44.184 1054.745) rotate(-90)" fill="#d1d6e1"/>
      <path id="Subtraction_17" data-name="Subtraction 17" d="M106.406,197.712H0V97.858A98.1,98.1,0,0,1,17.3,43.1a99.637,99.637,0,0,1,164.485.48,98.933,98.933,0,0,1-75.381,153.884v.242ZM100.033,48.924c-27.9,0-50.6,22.4-50.6,49.931s22.7,49.931,50.6,49.931,50.6-22.4,50.6-49.931S127.934,48.924,100.033,48.924Z" transform="translate(243.84) rotate(90)" fill="#d1d6e1"/>
      <g id="Mask_Group_14201" data-name="Mask Group 14201" transform="translate(225.495 851.738)" clip-path="url(#clip-path)">
        <ellipse id="Ellipse_930" data-name="Ellipse 930" cx="78.795" cy="77.4" rx="78.795" ry="77.4" transform="translate(0 0)" fill="#fff"/>
      </g>
      <g id="Mask_Group_14202" data-name="Mask Group 14202" transform="translate(167.71 237.491)" clip-path="url(#clip-path-2)">
        <ellipse id="Ellipse_933" data-name="Ellipse 933" cx="78.795" cy="77.4" rx="78.795" ry="77.4" transform="translate(-78.098 0)" fill="#d1d6e1"/>
      </g>
      <circle id="Ellipse_934" data-name="Ellipse 934" cx="51.5" cy="51.5" r="51.5" transform="translate(50 199)" fill="#fff"/>
      <ellipse id="Ellipse_935" data-name="Ellipse 935" cx="51" cy="51.5" rx="51" ry="51.5" transform="translate(203 1014)" fill="#fff"/>
    </g>
  </g>
</svg>
