<svg xmlns="http://www.w3.org/2000/svg" width="396.659" height="578.747" viewBox="0 0 396.659 578.747">
  <g id="Group_23288" data-name="Group 23288" transform="translate(-833.491 -601.037)">
    <path id="Path_13359" data-name="Path 13359" d="M53.921,111.694h53.921V53.921A53.921,53.921,0,1,0,0,53.921v3.852A53.921,53.921,0,0,0,53.921,111.694Z" transform="translate(946.502 601.037)" fill="#113191"/>
    <path id="Rectangle_4831" data-name="Rectangle 4831" d="M0,0H114.863A114.863,114.863,0,0,1,229.727,114.863v8.561A114.863,114.863,0,0,1,114.863,238.288h0A114.863,114.863,0,0,1,0,123.425V0A0,0,0,0,1,0,0Z" transform="translate(1000.424 941.496)" fill="#0f244e"/>
    <path id="Subtraction_18" data-name="Subtraction 18" d="M113.487,226.022A113.554,113.554,0,0,1,9.237,157.741a111.84,111.84,0,0,1-9.23-43.588H0V0H121.511V.278A113.215,113.215,0,0,1,226.972,113.011a112.421,112.421,0,0,1-33.239,79.911,113.37,113.37,0,0,1-80.246,33.1Zm6.581-189.74c-42.1,0-76.348,34.42-76.348,76.729s34.25,76.729,76.348,76.729,76.348-34.42,76.348-76.729S162.167,36.282,120.068,36.282Z" transform="translate(1059.513 714.524) rotate(90)" fill="#0a7db1"/>
  </g>
</svg>
