<svg xmlns="http://www.w3.org/2000/svg" xmlns:xlink="http://www.w3.org/1999/xlink" width="225.385" height="570.158" viewBox="0 0 225.385 570.158">
  <defs>
    <clipPath id="clip-path">
      <rect id="Rectangle_4832" data-name="Rectangle 4832" width="81.188" height="158.104" transform="translate(0 0)" fill="#d1d6e1" stroke="#707070" stroke-width="1"/>
    </clipPath>
  </defs>
  <g id="Group_23291" data-name="Group 23291" transform="translate(-816.505 -46.458)">
    <path id="Subtraction_19" data-name="Subtraction 19" d="M94.248,187.816a95.283,95.283,0,0,1-18.882-1.885A93.772,93.772,0,0,1,0,94.857H0V0H100.912V.231a94.243,94.243,0,0,1,62.146,29.5A93.547,93.547,0,0,1,172.4,146.413a94.216,94.216,0,0,1-78.152,41.4Zm.3-154.6a60.391,60.391,0,1,0,60.223,60.391A60.375,60.375,0,0,0,94.549,33.215Z" transform="translate(1005 616.616) rotate(180)" fill="#fff"/>
    <path id="Rectangle_4833" data-name="Rectangle 4833" d="M0,0H65.5a65.5,65.5,0,0,1,65.5,65.5v5.1a65.5,65.5,0,0,1-65.5,65.5h0A65.5,65.5,0,0,1,0,70.6V0A0,0,0,0,1,0,0Z" transform="translate(871.993 46.458)" fill="#fff"/>
    <g id="Mask_Group_14204" data-name="Mask Group 14204" transform="translate(831.285 289.646) rotate(-90)" clip-path="url(#clip-path)">
      <ellipse id="Ellipse_939" data-name="Ellipse 939" cx="80.476" cy="79.052" rx="80.476" ry="79.052" transform="translate(-79.764 0)" fill="#d1d6e1"/>
    </g>
    <ellipse id="Ellipse_940" data-name="Ellipse 940" cx="52.5" cy="52.5" rx="52.5" ry="52.5" transform="translate(936.889 325.8)" fill="#fff"/>
  </g>
</svg>
