<svg xmlns="http://www.w3.org/2000/svg" width="170.861" height="34.984" viewBox="0 0 170.861 34.984">
  <g id="Component_4_81" data-name="Component 4 – 81" transform="translate(0 0)">
    <g id="Group_3" data-name="Group 3" transform="translate(38.112 7.414)">
      <g id="Group_1" data-name="Group 1" transform="translate(0 0)">
        <path id="Path_1" data-name="Path 1" d="M168.6,250.435h17.08v4.885H174.618v5.605h10.339v4.885H174.618v10.149H168.6Z" transform="translate(-168.596 -248.844)" fill="#0f244e"/>
        <path id="Path_2" data-name="Path 2" d="M220.168,253.256a3.256,3.256,0,1,1,.038,0Zm-2.992,20.829V255.566H223.2v18.519Z" transform="translate(-198.352 -246.969)" fill="#0f244e"/>
        <path id="Path_3" data-name="Path 3" d="M238.783,273.923c0-2.386-.076-4.393-.152-6.022h5.226l.265,2.689h.151a7.154,7.154,0,0,1,6.135-3.143c3.863,0,7.2,2.424,7.2,8.294v10.68h-6.021v-9.808c0-2.689-1.023-4.355-3.295-4.355a3.5,3.5,0,0,0-3.3,2.348,3.626,3.626,0,0,0-.189,1.326v10.49h-6.021Z" transform="translate(-211.661 -259.305)" fill="#0f244e"/>
        <path id="Path_4" data-name="Path 4" d="M312.379,246.3v21.548c0,2.234.075,4.469.151,5.567h-5.377l-.266-2.916h-.075a7.154,7.154,0,0,1-6.438,3.371c-4.507,0-8.635-3.56-8.635-9.506-.037-6.135,4.242-9.922,9.09-9.922,2.5,0,4.506.833,5.452,2.159h.076V246.3ZM306.358,263a4.62,4.62,0,0,0-.076-1.022,3.9,3.9,0,0,0-3.862-3.03c-2.954,0-4.508,2.272-4.508,5.151,0,2.992,1.743,5,4.469,5a3.919,3.919,0,0,0,3.863-3.143,5.09,5.09,0,0,0,.114-1.325Z" transform="translate(-244.318 -246.304)" fill="#0f244e"/>
      </g>
      <g id="Group_2" data-name="Group 2" transform="translate(71.092 0)">
        <path id="Path_5" data-name="Path 5" d="M353.36,246.3h6.021v10.907h.076a7.284,7.284,0,0,1,6.172-2.765c4.772,0,8.521,3.56,8.483,9.43,0,6.741-4.809,10-9.316,10a6.845,6.845,0,0,1-6.173-3.182h-.076l-.227,2.727h-5.112c.075-1.1.152-3.332.152-5.567Zm6.021,18.859a3.988,3.988,0,0,0,.076.947,4.076,4.076,0,0,0,3.976,3.068c2.689,0,4.507-1.856,4.507-5.075,0-2.765-1.476-5.113-4.507-5.113a4.076,4.076,0,0,0-3.976,3.219,7.951,7.951,0,0,0-.076,1.022Z" transform="translate(-353.208 -246.304)" fill="#00a6e1"/>
        <path id="Path_6" data-name="Path 6" d="M411.191,273.923c0-2.386-.076-4.393-.151-6.022h5.226l.265,2.689h.151a7.156,7.156,0,0,1,6.136-3.143c3.862,0,7.2,2.424,7.2,8.294v10.68h-6.022v-9.808c0-2.689-1.022-4.355-3.295-4.355a3.5,3.5,0,0,0-3.3,2.348,3.624,3.624,0,0,0-.189,1.326v10.49h-6.022Z" transform="translate(-388.77 -259.305)" fill="#00a6e1"/>
        <path id="Path_7" data-name="Path 7" d="M469.9,279.036c.19,2.234,2.8,3.37,5.643,3.37a16.8,16.8,0,0,0,5.642-.833l.8,4.014a19.007,19.007,0,0,1-7.27,1.288c-6.666,0-10.567-3.787-10.567-9.544,0-4.166,2.84-9.884,10-9.884,6.7,0,8.938,5.189,8.938,9.43a9.321,9.321,0,0,1-.228,2.159Zm7.536-4.09a3.465,3.465,0,0,0-3.6-3.6,3.978,3.978,0,0,0-4.014,3.6Z" transform="translate(-421.426 -259.305)" fill="#00a6e1"/>
      </g>
    </g>
    <g id="Group_6" data-name="Group 6">
      <g id="Group_4" data-name="Group 4">
        <path id="Path_8" data-name="Path 8" d="M104.157,239.112c-1.225-6.836-7.544-12.062-15.134-12.062s-13.908,5.225-15.132,12.062h3.265a12.312,12.312,0,0,1,23.735,0Z" transform="translate(-72.248 -227.05)" fill="#0f244e"/>
        <path id="Path_9" data-name="Path 9" d="M74.282,261.135h-.1v0H71.222v0h-.276a1.322,1.322,0,0,0-1.32,1.32v6.774a1.319,1.319,0,0,0,1.321,1.318h3.336a1.319,1.319,0,0,0,1.319-1.318v-6.774A1.321,1.321,0,0,0,74.282,261.135Z" transform="translate(-69.625 -248.006)" fill="#0f244e"/>
        <path id="Path_10" data-name="Path 10" d="M145.892,261.135h-.211v0h-2.959v0h-.167a1.319,1.319,0,0,0-1.319,1.32v6.774a1.317,1.317,0,0,0,1.319,1.318h3.337a1.317,1.317,0,0,0,1.318-1.318v-6.774A1.319,1.319,0,0,0,145.892,261.135Z" transform="translate(-113.66 -248.006)" fill="#0f244e"/>
      </g>
      <g id="Group_5" data-name="Group 5" transform="translate(6.871 5.847)">
        <path id="Path_11" data-name="Path 11" d="M97.1,242.234a9.631,9.631,0,0,0-9.632,9.634c0,2.919,1.945,6.62,3.51,9.631,1.556,2.987,4.158,7.964,5.248,9.516a1.143,1.143,0,0,0,1.658,0,89.278,89.278,0,0,0,5.449-9.266c1.88-3.606,3.4-7.024,3.4-9.881A9.632,9.632,0,0,0,97.1,242.234Zm0,14.424a4.792,4.792,0,1,1,4.791-4.79A4.791,4.791,0,0,1,97.1,256.658Z" transform="translate(-87.468 -242.234)" fill="#00a6e1"/>
        <path id="Path_12" data-name="Path 12" d="M117.271,251.868a4.792,4.792,0,0,1-4.791,4.79v14.706a1.1,1.1,0,0,0,.784-.35,89.285,89.285,0,0,0,5.449-9.266c1.88-3.606,3.4-7.024,3.4-9.881a9.632,9.632,0,0,0-9.63-9.634v4.841A4.792,4.792,0,0,1,117.271,251.868Z" transform="translate(-102.848 -242.234)" fill="#0095c9"/>
        <path id="Path_13" data-name="Path 13" d="M101,248.583a7.188,7.188,0,1,0,7.193,7.189A7.189,7.189,0,0,0,101,248.583Zm0,11.979a4.792,4.792,0,1,1,4.791-4.791A4.792,4.792,0,0,1,101,260.562Z" transform="translate(-91.367 -246.138)" fill="#0086b4"/>
      </g>
    </g>
  </g>
</svg>
