<svg xmlns="http://www.w3.org/2000/svg" width="111.142" height="84.687" viewBox="0 0 111.142 84.687">
  <g id="Group_23284" data-name="Group 23284" transform="translate(-1061.408 -313.492)">
    <g id="Group_50" data-name="Group 50" transform="translate(-400.41 109.08)">
      <path id="Path_37" data-name="Path 37" d="M3634.061,253.5l.924-11.1.923,11.1-.923,10.29Z" transform="translate(-2162.473 25.307)" fill="#fff"/>
      <path id="Path_38" data-name="Path 38" d="M0,11.1.923,0l.923,11.1L.923,21.385Z" transform="translate(1483.203 277.483) rotate(90)" fill="#fff"/>
    </g>
    <g id="Group_52" data-name="Group 52" transform="translate(-310.225 85.778)">
      <path id="Path_37-2" data-name="Path 37" d="M3634.062,253.28l.9-10.873.9,10.873-.9,10.084Z" transform="translate(-2162.67 25.307)" fill="#fff"/>
      <path id="Path_38-2" data-name="Path 38" d="M0,10.873.9,0l.9,10.873L.9,20.957Z" transform="translate(1482.775 277.288) rotate(90)" fill="#fff"/>
    </g>
    <g id="Group_23277" data-name="Group 23277" transform="translate(-364.225 45.778)">
      <path id="Path_37-3" data-name="Path 37" d="M3634.062,263.161l1.727-20.753,1.727,20.753-1.727,19.247Z" transform="translate(-2153.97 25.307)" fill="#fff"/>
      <path id="Path_38-3" data-name="Path 38" d="M0,20.753,1.727,0,3.453,20.753,1.727,40Z" transform="translate(1501.818 285.987) rotate(90)" fill="#fff"/>
    </g>
  </g>
</svg>
