<?xml version="1.0" encoding="utf-8"?>
<!-- Generator: Adobe Illustrator 25.2.1, SVG Export Plug-In . SVG Version: 6.00 Build 0)  -->
<svg version="1.1" xmlns="http://www.w3.org/2000/svg" xmlns:xlink="http://www.w3.org/1999/xlink" x="0px" y="0px"
	 viewBox="0 0 413.6 653.9" style="enable-background:new 0 0 413.6 653.9;" xml:space="preserve">
<style type="text/css">
	.st0{fill:#0F244E;stroke:#FFFFFF;stroke-width:2;stroke-linecap:round;stroke-miterlimit:10;}
	.st1{fill:none;stroke:#FFFFFF;stroke-width:8;stroke-linecap:round;stroke-miterlimit:10;}
	.st2{fill:#0F244E;stroke:#FFFFFF;stroke-width:2;stroke-miterlimit:10;}
	.st3{fill:#6AF3F8;stroke:#6AF3F8;stroke-width:2;stroke-miterlimit:10;}
	.st4{fill:none;stroke:#FFFFFF;stroke-width:2;stroke-miterlimit:10;}
	.st5{fill:#FFFFFF;stroke:#FFFFFF;stroke-width:2;}
	.st6{fill:#DCFEFF;stroke:#FFFFFF;stroke-width:2;stroke-linecap:round;stroke-miterlimit:10;}
	.st7{fill:#6AF3F8;stroke:#6AF3F8;stroke-width:2;stroke-linecap:round;stroke-miterlimit:10;}
	.st8{fill:#0F244E;stroke:#FFFFFF;stroke-width:2.0005;stroke-linecap:round;stroke-miterlimit:10.0025;}
	.st9{fill:none;stroke:#FFFFFF;stroke-width:2;stroke-linecap:round;stroke-miterlimit:10;}
	.st10{fill:#DCFEFF;stroke:#FFFFFF;stroke-width:2;stroke-miterlimit:10;}
	.st11{fill:#0D2C6A;}
	.st12{fill:#6AF3F8;stroke:#6AF3F8;stroke-width:2.0008;stroke-linecap:round;stroke-miterlimit:10.0042;}
</style>
<g id="boy3">
	<g id="Group_23266" transform="translate(192.308 413.637)">
		<path id="Path_166" class="st0" d="M-75.3-53v23.9c-4.5,0.6-7.8,4.4-7.8,8.9l0,0c0,4.6,3.4,8.4,7.9,8.9
			C-74.1,3.1-63.7,15-49.7,18.2v28.7h14.4V18.2c15-3.4,25.7-16.7,25.7-32V-53H-75.3z"/>
		<path id="Path_167" class="st1" d="M-59.4,42.1l-5.7,21.1c-2.6,11.1-11.7,14.6-20.4,12.9c-0.4-0.1-0.8-0.2-1.2-0.3
			c-5.8-1.5-10.6-5.3-13.5-10.6l-7.7-13.7"/>
		<path id="Path_168" class="st1" d="M-23,42.6c6.8,6.6,14.8,12.4,19.6,20.7c5,8.4,3.5,19.2-3.7,25.9c-4.6,4.4-10.3,7.8-15.4,11.6
			l-9.7,7.3"/>
		<path id="Path_169" class="st2" d="M-6.9-36.3h-68v-37.2c0-5.5,7-3.6,11.2-7.2s5.5-10.7,11.8-10.7h22c12.7,0,23,8.9,23,19.8V-36.3
			z"/>
		<circle id="Ellipse_79" class="st3" cx="-43.4" cy="-24" r="10.4"/>
		<circle id="Ellipse_80" class="st3" cx="-15.2" cy="-24" r="10.4"/>
		<line id="Line_37" class="st4" x1="-32.9" y1="-25.4" x2="-25.6" y2="-25.4"/>
		<line id="Line_38" class="st4" x1="-52.4" y1="-29.2" x2="-75.3" y2="-29.2"/>
		<g id="Group_76" transform="translate(103.259 88.09)">
			<path id="Path_170" class="st5" d="M-149-88.5c1,5.2,6,8.7,11.2,7.8c0,0,0,0,0,0"/>
			<path id="Path_171" class="st2" d="M-139.6-77.6c-2.6,0-5-0.8-7.1-2.2c-2.8-1.9-4.6-4.8-5.2-8.1c-0.3-1.6,0.8-3.1,2.4-3.4
				c0,0,0,0,0,0c1.6-0.3,3.1,0.8,3.4,2.4c0.3,1.7,1.3,3.3,2.8,4.3c1.5,1,3.3,1.4,5,1.1c1.6-0.3,3.1,0.8,3.4,2.4
				c0.3,1.6-0.8,3.1-2.4,3.4C-138-77.7-138.8-77.6-139.6-77.6z"/>
		</g>
		<path id="Rectangle_108" class="st6" d="M-42.7,39.5L-42.7,39.5c12.3,0,22.3,10,22.3,22.3c0,0,0,0,0,0V122l0,0h-44.7l0,0V61.8
			C-65.1,49.5-55.1,39.5-42.7,39.5C-42.7,39.5-42.7,39.5-42.7,39.5z"/>
		<path id="Rectangle_109" class="st0" d="M-42.9,32.6h1.6c2.1,0,3.9,1.7,3.9,3.9V42c0,2.1-1.7,3.9-3.9,3.9h-1.6
			c-2.1,0-3.9-1.7-3.9-3.9v-5.6C-46.8,34.3-45.1,32.6-42.9,32.6z"/>
		<path id="Path_172" class="st0" d="M-46.8,44.5c0,0.6-1.7,2.2-2.1,2.7c-0.8,1.1-1.6,2.2-2.5,3.3c-1.4,1.6-3.2,1-5,0.2
			c-5.8-2.8-6.7-11.4-5.5-16.9c0.6-2.9,4.1-9.1,7.7-6c2.5,2.1,4.9,4.4,7.4,6.6L-46.8,44.5z"/>
		<path id="Path_173" class="st0" d="M-37.5,44.5c0,0.6,1.7,2.2,2.1,2.7c0.8,1.1,1.6,2.2,2.5,3.3c1.4,1.6,3.2,1,5,0.2
			c5.8-2.8,6.7-11.4,5.5-16.9c-0.6-2.9-4.1-9.1-7.7-6c-2.5,2.1-4.9,4.4-7.4,6.6V44.5z"/>
		<path id="Path_174" class="st1" d="M-52.4,126.5l-4.2,38.3c-0.7,6.5-0.7,13-0.1,19.5l3.5,33.8c0.5,5.1,0.1,10.4-1.3,15.3l-0.5,1.9
			"/>
		<path id="Path_175" class="st1" d="M-20.4,118.5L1,122.7c10.6,2.1,17.5,12.3,15.4,22.9c0,0.1,0,0.2,0,0.2l-5.7,27.1
			c-0.2,1-0.1,2.1,0.3,3l2.2,5"/>
		<g id="Group_79" transform="translate(0 91.191)">
			<path id="Path_176" class="st7" d="M-18.7-4.1c-14.6-2.8-13.3-19.6-26.4-24c-6.9-2.3-14.5-0.4-19.5,4.9C-71.4-16-82.4-8-82.8,2.6
				c-0.3,8.6,5.2,16.3,13.5,18.8c6.6,2,11.7,7.3,13.3,14.1c1.3,5.2,4.1,10,8,13.7l5.2,4.9c8.4,7.9,18.9,7.2,28.1,1.2
				C-0.5,46,17,23.6,0.6,8.1l-5.2-4.9C-8.6-0.5-13.4-3-18.7-4.1z"/>
			<g id="Group_78" transform="translate(0 0)">
				
					<rect id="Rectangle_110" x="-81.5" y="-88.1" transform="matrix(0.6868 -0.7268 0.7268 0.6868 -10.6956 -60.032)" class="st8" width="13" height="141"/>
				<line id="Line_39" class="st9" x1="-122.5" y1="-62.4" x2="-23.8" y2="30.8"/>
				<g id="Group_77">
					<path id="Rectangle_111" class="st8" d="M-145.2-82.7l0.8-0.8c3.2-3.4,8.5-3.5,11.8-0.3l9.2,8.7c3.4,3.2,3.5,8.5,0.3,11.8
						l-0.8,0.8c-3.2,3.4-8.5,3.5-11.8,0.3l-9.2-8.7C-148.2-74.1-148.3-79.4-145.2-82.7z"/>
					<circle id="Ellipse_81" class="st0" cx="-130.5" cy="-88.8" r="2.6"/>
					<circle id="Ellipse_82" class="st0" cx="-120.3" cy="-79.2" r="2.6"/>
					<circle id="Ellipse_83" class="st0" cx="-125.4" cy="-84" r="2.6"/>
					<circle id="Ellipse_84" class="st0" cx="-149.4" cy="-68.8" r="2.6"/>
					<circle id="Ellipse_85" class="st0" cx="-139.3" cy="-59.2" r="2.6"/>
					<circle id="Ellipse_86" class="st0" cx="-144.3" cy="-64" r="2.6"/>
				</g>
			</g>
			<circle id="Ellipse_87" class="st0" cx="-41.9" cy="13.3" r="11.1"/>
		</g>
		<path id="Rectangle_112" class="st2" d="M-97.7-36.9H13.9c2,0,3.6,1.6,3.6,3.6l0,0c0,2-1.6,3.6-3.6,3.6H-97.7
			c-2,0-3.6-1.6-3.6-3.6l0,0C-101.3-35.3-99.7-36.9-97.7-36.9z"/>
	</g>
</g>
<g id="boy1">
	<g id="Group_23267" transform="translate(152.997 92.418)">
		<path id="Path_193" class="st2" d="M-90.8-11.5V-29h50.4V3.8c0,11.3-8.4,20.8-19.6,22.3v4.5h5.8c-0.8,4.3-1.1,8.8-3.1,12.7
			c-2.1,4-5.2,7.3-8.9,9.8c-0.6,0.4-4-2.6-4.5-3c-1.3-1-2.4-2.2-3.4-3.5c-2.1-2.8-3.3-6.2-3.6-9.7c0-0.5-0.4-6.2-0.6-6.2h6.6V26
			c-11-1.7-19.1-11.1-19.1-22.2V1.9c-2.7-0.7-4.6-3.2-4.6-6v-1.5C-95.4-8.3-93.5-10.8-90.8-11.5z"/>
		<path id="Path_194" class="st2" d="M-35.3-25.9H-101v-44.2c0-6.5,6.8-4.3,10.8-8.5s5.3-12.7,11.4-12.7h21.2
			c12.3,0,22.2,10.5,22.2,23.5L-35.3-25.9z"/>
		<path id="Path_195" class="st1" d="M-58.1,215.8l-0.1-0.3c-3.8-11.4-2.4-23.9,3.9-34.1l0,0c4.6-7.4,7-16,7-24.7v-1.3
			c0-3.6-0.7-7.1-2.1-10.5l-10.4-25.3"/>
		<path id="Rectangle_125" class="st0" d="M-65.7,34.8L-65.7,34.8c12.8,0,23.1,10.4,23.1,23.1v84.6c0,0.8-0.7,1.5-1.5,1.5
			c0,0,0,0,0,0h-44.8l0,0V58C-88.8,45.2-78.4,34.8-65.7,34.8z"/>
		<ellipse id="Ellipse_95" class="st10" cx="-64.9" cy="-7.7" rx="8" ry="8"/>
		<ellipse id="Ellipse_96" class="st10" cx="-43.3" cy="-7.7" rx="8" ry="8"/>
		<line id="Line_44" class="st4" x1="-56.9" y1="-4.4" x2="-51.3" y2="-4.4"/>
		<line id="Line_45" class="st4" x1="-71.8" y1="-11.7" x2="-89.3" y2="-11.7"/>
		<path id="Path_196" class="st0" d="M-69.8,12c1.2,6.6,7.5,10.9,14,9.7c0,0,0,0,0,0"/>
		<ellipse id="Ellipse_97" class="st0" cx="-82.7" cy="-70.2" rx="2.9" ry="2.9"/>
		<ellipse id="Ellipse_98" class="st0" cx="-82.7" cy="-59.7" rx="2.9" ry="2.9"/>
		<ellipse id="Ellipse_99" class="st0" cx="-82.7" cy="-49.9" rx="2.9" ry="2.9"/>
		<path id="Rectangle_126" class="st0" d="M-63.8,42.4L-63.8,42.4c13.8,0,25,11.2,25,25l0,0l0,0l0,0C-52.6,67.5-63.8,56.2-63.8,42.4
			L-63.8,42.4L-63.8,42.4z"/>
		<path id="Rectangle_127" class="st0" d="M-61.5,77.2L-61.5,77.2c-6.9-12-2.8-27.3,9.2-34.2l0,0l0,0l0,0
			C-45.4,54.9-49.5,70.2-61.5,77.2L-61.5,77.2L-61.5,77.2z"/>
		<path id="Path_199" class="st2" d="M-83.3,50.5c10.4,8,22,8,34.9,0c1.3-0.8,2.1-2.2,2.1-3.7V32.8c0-2.4-2-4.4-4.4-4.4
			c-0.3,0-0.7,0-1,0.1C-62.1,31-71.4,31.1-79.6,29c-2.3-0.6-4.7,0.8-5.3,3.1c-0.1,0.4-0.1,0.7-0.1,1.1V47
			C-85,48.3-84.4,49.6-83.3,50.5z"/>
		<path id="Path_200" class="st0" d="M-72.2,61.6c2.7,0.6,5.4,1,8.1,1c10.7,0.1,19.8-7.8,19.2-17.5c-0.1-1.4-0.3-2.7-0.8-4
			c-0.9-2.1-3.1-3.1-5.3-2.6c-13,3-20.3,2.4-29.5-0.7c-2.1-0.7-4.3,0.3-5.1,2.3c0,0.1-0.1,0.2-0.1,0.3
			C-88.7,49.7-82.6,59.2-72.2,61.6z"/>
		<path id="Rectangle_128" class="st3" d="M-112.1-26.1h92.8c2,0,3.6,1.6,3.6,3.6l0,0c0,2-1.6,3.6-3.6,3.6h-92.8
			c-2,0-3.6-1.6-3.6-3.6l0,0C-115.7-24.5-114.1-26.1-112.1-26.1z"/>
		<path id="Path_201" class="st0" d="M-133,95.2V76.9c0-14,11.3-25.3,25.3-25.3c0,0,0,0,0,0h14.9c14,0,25.3,11.3,25.3,25.3
			c0,0,0,0,0,0v18.2c0,6.5,1.6,13,4.7,18.7c8.3,15.2,14.6,30.1,15.4,43.9c0,28.9-23.4,52.3-52.3,52.3c0,0,0,0,0,0l0,0
			c-28.9,0-52.3-23.4-52.3-52.3c-0.6-12.9,5.4-27.9,14.1-43.8C-134.7,108.2-133,101.7-133,95.2z"/>
		<path id="Path_202" class="st0" d="M-119.3,118.5c-6.6-2.2-8.9,0.9-8.9,6.7l-3,36.4c-0.1,2.1-1.3,4.1-3.1,5.2
			c-2.5,1.5-5.4,0.9-7.6-1.8"/>
		<path id="Path_203" class="st0" d="M-79.3,119.8c6.6-2.2,8.9,0.9,8.9,6.7l3,36.4c0.1,2.1,1.3,4.1,3.1,5.2c2.5,1.5,5.4,0.9,7.6-1.8
			"/>
		<line id="Line_46" class="st9" x1="-81.1" y1="142.8" x2="-118.9" y2="142.8"/>
		<rect id="Rectangle_129" x="-107.5" y="-41.9" class="st0" width="18.1" height="209.3"/>
		<line id="Line_47" class="st9" x1="-98.4" y1="-34.2" x2="-98.4" y2="167.4"/>
		<path id="Path_204" class="st7" d="M-98.4,209.8c2.3,0,4.2-1.7,4.5-4l5.6-44.2c0.2-3-0.9-5.9-3-8c-6-5.9-18.2-1.2-17.1,7.7
			l5.3,44.4C-102.9,208.1-100.8,209.9-98.4,209.8z"/>
		<g id="Group_82" transform="translate(30.597 18.359)">
			<ellipse id="Ellipse_100" class="st0" cx="-149.1" cy="-88.6" rx="2.9" ry="2.9"/>
			<ellipse id="Ellipse_101" class="st0" cx="-149.1" cy="-78" rx="2.9" ry="2.9"/>
			<ellipse id="Ellipse_102" class="st0" cx="-149.1" cy="-68.3" rx="2.9" ry="2.9"/>
		</g>
		<g id="Group_83" transform="translate(68.605 18.359)">
			<ellipse id="Ellipse_103" class="st0" cx="-149.1" cy="-88.6" rx="2.9" ry="2.9"/>
			<ellipse id="Ellipse_104" class="st0" cx="-149.1" cy="-78" rx="2.9" ry="2.9"/>
			<ellipse id="Ellipse_105" class="st0" cx="-149.1" cy="-68.3" rx="2.9" ry="2.9"/>
		</g>
		<path id="Rectangle_130" class="st0" d="M-99.4-78.3h2c6.2,0,11.2,5,11.2,11.2v20.2c0,6.2-5,11.2-11.2,11.2h-2
			c-6.2,0-11.2-5-11.2-11.2v-20.2C-110.5-73.3-105.5-78.3-99.4-78.3z"/>
		<path id="Path_197" class="st1" d="M-101,96.8h36.9c15.7,0,28.4-12.6,28.4-28.3c0-1.7-0.1-3.4-0.4-5.1C-37.4,56.5-42,49.6-48,43"
			/>
		<path id="Path_198" class="st1" d="M-110.9,37.1c-5.2-2.9-0.1-10.7,1.7-16.3l0,0c0.8-2.5,2.4-4.6,4.5-6.1l3.6-2.6"/>
	</g>
</g>
<g id="boy2">
	<g>
		<g id="Group_23265" transform="translate(402.921 113.86)">
			<path id="Path_145" class="st1" d="M-60,9.3l0.2,0c10-1.9,17.5-10.3,18.2-20.4c1.1-15.9,6-29.4,14.6-40.6
				c0.2-0.2,0.4-0.4,0.6-0.6c9.8-10,20.7-14.3,32.6-12.6"/>
			<g id="Group_74" transform="translate(0)">
				<path id="Path_146" class="st0" d="M-62.4,1c5.9,5,7.7,11.6,5.6,19.4l-22.4,6.5c-5.4,1.6-11-1.5-12.5-6.9c0,0,0,0,0,0l0,0
					c-1.6-5.4,1.5-11,6.9-12.5c0,0,0,0,0,0L-62.4,1z"/>
				<path id="Path_147" class="st0" d="M-75.9,26.5V119h-59V26.5c0-7.8,5.2-14.6,12.7-16.6c1.5-0.4,3-0.6,4.6-0.6h24.6
					c0.4,0,0.7,0,1,0C-83,9.9-75.9,17.4-75.9,26.5z"/>
				<path id="Rectangle_105" class="st3" d="M-139.5-59.9h9.1l0,0v37.7l0,0h-9.1c-3.5,0-6.4-2.9-6.4-6.4v-24.9
					C-145.9-57-143-59.9-139.5-59.9z"/>
				<path id="Rectangle_106" class="st3" d="M-73.6-22.2h-9.1l0,0v-37.7l0,0h9.1c3.5,0,6.4,2.9,6.4,6.4v24.9
					C-67.2-25.1-70.1-22.2-73.6-22.2z"/>
				<path id="Path_148" class="st9" d="M-134.9-59.9c0-17.4,13.1-31.5,29.2-31.5s29.2,14.1,29.2,31.5"/>
				<path id="Path_149" class="st0" d="M-145.2-33.6c-3.8,0-6.8-3-6.8-6.8c0,0,0,0,0,0c0-3.8,3-6.8,6.8-6.8l0,0V-33.6z"/>
				<path id="Path_150" class="st0" d="M-67.2-33.6c3.8,0,6.8-3,6.8-6.8c0-3.8-3-6.8-6.8-6.8V-33.6z"/>
				<path id="Path_151" class="st0" d="M-91-72.2h-29.2c-6.1,0-11,4.9-11,11v35.4c0,9.7,7.9,17.7,17.6,17.8V9.3h-3.2
					c-1.5,0-3.1,0.2-4.6,0.6l0.7,4c1.3,7.4,4.9,14.1,10.3,19.3c1.2,1.2,2.5,2.2,4,3.1c0.5-0.2,1-0.5,1.5-0.8
					c7.4-4.5,12.3-12.3,13.2-20.9l0.6-5.2c-0.3,0-0.7,0-1,0h-7.3V-8h0.3c9.8,0,17.8-8,17.9-17.9v-36.7C-81.4-67.8-85.7-72.1-91-72.2
					z"/>
				<path id="Path_152" class="st1" d="M-125.5,41.2l36.3,21c12.5,7.3,21.8,19,26,32.8l6.6,21.7"/>
				<path id="Rectangle_107" class="st2" d="M-106.3-87h26.5l0,0l0,0c0,13.8-11.2,25-25,25h-26.5l0,0l0,0
					C-131.3-75.8-120.1-87-106.3-87z"/>
				<path id="Path_153" class="st0" d="M-114.4,39.6c-4.1,6.6-10.7,8.5-18.8,7.5l-8.6-21.7c-2.1-5.2,0.5-11.1,5.7-13.1l0,0
					c5.2-2.1,11.1,0.5,13.1,5.7c0,0,0,0,0,0L-114.4,39.6z"/>
			</g>
		</g>
		<path id="Union_16" class="st11" d="M222.6,308.2v-58l0,0c0.3-31.7,26.3-57.2,58-56.9s57.2,26.3,56.9,58
			c-0.3,29.9-23.5,54.6-53.4,56.7v0.1H222.6z"/>
	</g>
</g>
<g id="girl1">
	<g id="Group_23264" transform="translate(316.379 300.27)">
		<path id="Path_154" class="st1" d="M-65.6,127.2l-0.6,26c-0.1,5.2-1.8,10.2-4.8,14.4l-24.6,35.1"/>
		<line id="Line_34" class="st1" x1="-75.4" y1="127.2" x2="-75.4" y2="202.7"/>
		<path id="Path_155" class="st2" d="M3.5,38.6c-10.9,16.3-34.9,16.8-50.6-8.2c-2.3-3.7-6.7-2.1-10.7-3c-7.8-1.8-47.9,39.4-66.1-4.5
			c-2-16,5.8-24.8,11.4-39.3c2.9-7.5,6.8-14.6,9.5-22.3c3-8.8,1.4-15.3,1.8-24.3c0.9-17,17.6-23,29.9-23c10.3,0,22,7.2,28.2,17.3
			c5.6,9,3.4,37.5,12.6,40.7c20,6.9,48.1,0.3,51.3,22.9C22.4,4.6,8.8,30.8,3.5,38.6z"/>
		<line id="Line_35" class="st4" x1="-74.2" y1="-44.6" x2="-66.9" y2="-44.6"/>
		<path id="Path_156" class="st1" d="M0.5,2.7c-1.1,9.3-4,21.2-13.4,25.5c-8.1,3.8-15.7-0.4-23.4-2.9"/>
		<path id="Path_157" class="st1" d="M-146.2,6l17.4,19.3c3.9,4.3,9.9,5.9,15.4,4.1l11.9-4"/>
		<path id="Path_158" class="st7" d="M-59.3,127.2h-19.2c-1.8,0-3.3-1.5-3.4-3.3l-3.4-42.1h34.2l-4.8,42.2
			C-56.1,125.8-57.5,127.2-59.3,127.2z"/>
		<g id="Group_75" transform="translate(2.9 80.275)">
			<path id="Path_159" class="st0" d="M-149.7-65l-2-3.1c-0.5-0.8-0.4-1.8,0.3-2.4l17.9-13.6c0.8-0.5,1.9-0.3,2.5,0.5
				c0,0,0,0.1,0.1,0.1l3.8,6c0.6,0.8,0.4,1.9-0.4,2.5c0,0-0.1,0-0.1,0.1l-19.7,10.8C-148.2-63.8-149.2-64.2-149.7-65z"/>
			<circle id="Ellipse_78" class="st0" cx="-126.3" cy="-82.3" r="9.1"/>
			<line id="Line_36" class="st9" x1="-130" y1="-90.6" x2="-124.8" y2="-82.6"/>
		</g>
		<path id="Path_160" class="st9" d="M-149.1,14.3c0,0-6.5,5.8,0,11.8s12.5,14.9,10.5,24.9s-9.8,29,6.2,29s51.2-22.3,76.6-11
			c32.1,14.3,17.9,61.5-6.4,72.2"/>
		<path id="Path_161" class="st0" d="M-57.9,8.8c-2.9-2.2-6.5-3.4-10.2-3.4c-4.2,0-8.2,1.5-11.4,4.3"/>
		<path id="Path_162" class="st0" d="M-40.7,11.2l10,6.7l-7.9,11.8l-12.4-8.3c0,0.4,0.1,0.7,0.1,1.1v60.8h-34.2V22.9l-11.9,8.4
			l-8.2-11.6l9.4-7.7c4.7-3.9,10.3-6.5,16.3-7.8c6.4-1.3,14-1.6,25.6,1.1C-49.3,6.5-44.8,8.5-40.7,11.2z"/>
		<path id="Path_163" class="st0" d="M-42.2-49.5c0-3.7-2.9-6.7-6.6-6.8V-74h-43.3v17.8l0,0c-3.7,0-6.8,3-6.8,6.8
			c0,3.7,3,6.8,6.8,6.8l0,0v8.8c0,10.1,6.9,18.8,16.7,21.1V2c-0.9,1.4-2.4,2.4-4.1,2.7l4.1,16.3c0.8,3.1,3.6,5.3,6.8,5.3
			c3.2,0,6.1-2.2,6.8-5.4l3.9-16.3c-1.6-0.1-3.3-1.2-5-3.4v-14.8c8.5-3.2,14.1-11.3,14.1-20.3v-8.8C-45.2-42.8-42.2-45.8-42.2-49.5z
			"/>
		<path id="Path_164" class="st2" d="M-88.5-39.7l-4,7.3l-4.8-7.6c-3.8-5.7-5.7-12.4-5.7-19.2c0.4-18.9,17.2-27.7,34.2-27.8
			c2.7,0,10.2-0.6,12.3,1.4c2.7,2.6,1.2,10.4,0.2,13.6c-3,9.7-12.2,16-20.8,20.5C-81.9-48.7-85.9-44.7-88.5-39.7z"/>
		<path id="Path_165" class="st12" d="M-34.3-66l-0.1-2.1c-0.7-10.6-9.5-20.4-20.7-18.4c-4.8,0.8-7.5,4.8-8.2,9.4
			c-0.9,4.9,0,9.9,2.4,14.3c0.1,0.1,0.1,0.2,0.2,0.3c8.1,12.6,7,14.8-4.3,31.8C-46.9-32-33.1-47.8-34.3-66z"/>
	</g>
</g>
</svg>
