<svg xmlns="http://www.w3.org/2000/svg" width="397.543" height="821.029" viewBox="0 0 397.543 821.029">
  <g id="Group_23259" data-name="Group 23259" transform="translate(7.5 117.552)">
    <g id="Group_23261" data-name="Group 23261" transform="translate(5.035 0)">
      <path id="Path_13303" data-name="Path 13303" d="M1086.784-517.81v27.584a10.408,10.408,0,0,1,9.017,10.309h0a10.409,10.409,0,0,1-9.149,10.328,37.9,37.9,0,0,1-29.451,33.939v33.129h-16.575v-33.119A37.9,37.9,0,0,1,1011-472.618V-517.81Z" transform="translate(-979.6 562.188)" fill="#0f244e" stroke="#fff" stroke-linecap="round" stroke-miterlimit="10" stroke-width="1"/>
      <path id="Path_13304" data-name="Path 13304" d="M985.941-421.243l6.574,24.356c2.986,12.789,13.449,16.8,23.581,14.913q.687-.128,1.361-.293a24.853,24.853,0,0,0,15.551-12.2l8.855-15.852" transform="translate(-897.196 575.328)" fill="none" stroke="#fff" stroke-linecap="round" stroke-miterlimit="10" stroke-width="7"/>
      <path id="Path_13305" data-name="Path 13305" d="M1088.959-420.666c-7.815,7.647-17.051,14.362-22.677,23.941a23.945,23.945,0,0,0,4.289,29.88c5.31,5.04,11.877,9.03,17.74,13.415l11.2,8.374" transform="translate(-1042.248 575.406)" fill="none" stroke="#fff" stroke-linecap="round" stroke-miterlimit="10" stroke-width="7"/>
      <path id="Path_13306" data-name="Path 13306" d="M1019.337-485.53h78.5v-42.954c0-6.3-8.117-4.14-12.918-8.271s-6.315-12.379-13.663-12.379h-25.339c-14.681,0-26.582,10.225-26.582,22.837Z" transform="translate(-991.112 549.134)" fill="#0f244e" stroke="#fff" stroke-miterlimit="10" stroke-width="1"/>
      <circle id="Ellipse_894" data-name="Ellipse 894" cx="12.023" cy="12.023" r="12.023" transform="translate(58.234 65.847)" fill="#dcfeff" stroke="#fff" stroke-miterlimit="10" stroke-width="1"/>
      <circle id="Ellipse_895" data-name="Ellipse 895" cx="12.023" cy="12.023" r="12.023" transform="translate(25.768 65.847)" fill="#dcfeff" stroke="#fff" stroke-miterlimit="10" stroke-width="1"/>
      <line id="Line_466" data-name="Line 466" x1="8.421" transform="translate(49.813 76.152)" fill="#0f1622" stroke="#fff" stroke-miterlimit="10" stroke-width="1"/>
      <line id="Line_467" data-name="Line 467" x2="26.52" transform="translate(80.663 71.858)" fill="#0f1622" stroke="#fff" stroke-miterlimit="10" stroke-width="1"/>
      <g id="Group_23247" data-name="Group 23247" transform="translate(56.701 101.682)">
        <path id="Path_13307" data-name="Path 13307" d="M1061.923-464.37a11.134,11.134,0,0,1-12.956,8.966" transform="translate(-1045.558 467.777)" fill="#fff" stroke="#fff" stroke-width="1"/>
        <path id="Path_13308" data-name="Path 13308" d="M1051.4-451.4a14.437,14.437,0,0,0,8.247-2.587,14.453,14.453,0,0,0,6.031-9.361,3.406,3.406,0,0,0-2.743-3.963,3.413,3.413,0,0,0-3.962,2.744,7.684,7.684,0,0,1-3.2,4.975,7.678,7.678,0,0,1-5.787,1.246,3.414,3.414,0,0,0-3.962,2.744,3.408,3.408,0,0,0,2.742,3.964A14.745,14.745,0,0,0,1051.4-451.4Z" transform="translate(-1045.968 467.369)" fill="#0f244e" stroke="#fff" stroke-miterlimit="10" stroke-width="1"/>
      </g>
      <path id="Path_13349" data-name="Path 13349" d="M25.791,0A25.791,25.791,0,0,1,51.582,25.791V95.322H0V25.791A25.791,25.791,0,0,1,25.791,0Z" transform="translate(43.737 151.079)" fill="#dcfeff" stroke="#fff" stroke-linecap="round" stroke-width="1"/>
      <rect id="Rectangle_4782" data-name="Rectangle 4782" width="10.788" height="15.38" rx="3.863" transform="translate(63.441 143.106)" fill="#0f244e" stroke="#fff" stroke-linecap="round" stroke-miterlimit="10" stroke-width="1"/>
      <path id="Path_13309" data-name="Path 13309" d="M1032.146-416.353c0,.716,1.926,2.551,2.382,3.157.95,1.256,1.849,2.578,2.86,3.786,1.578,1.89,3.67,1.2,5.818.178,6.694-3.175,7.705-13.139,6.386-19.548-.689-3.345-4.727-10.512-8.932-6.915-2.88,2.463-5.663,5.076-8.514,7.588Z" transform="translate(-957.917 573.227)" fill="#0f244e" stroke="#fff" stroke-linecap="round" stroke-miterlimit="10" stroke-width="1"/>
      <path id="Path_13310" data-name="Path 13310" d="M1075.386-416.353c0,.716-1.926,2.551-2.383,3.157-.949,1.256-1.849,2.578-2.859,3.786-1.578,1.89-3.669,1.2-5.817.178-6.694-3.175-7.706-13.139-6.386-19.548.688-3.345,4.726-10.512,8.932-6.915,2.88,2.463,5.663,5.076,8.514,7.588Z" transform="translate(-1011.945 573.227)" fill="#0f244e" stroke="#fff" stroke-linecap="round" stroke-miterlimit="10" stroke-width="1"/>
      <path id="Path_13311" data-name="Path 13311" d="M1037.418-335.448l4.882,44.153a105.655,105.655,0,0,1,.081,22.482l-4.033,39.014a47.583,47.583,0,0,0,1.507,17.706l.626,2.239" transform="translate(-956.754 587.002)" fill="none" stroke="#fff" stroke-linecap="round" stroke-miterlimit="10" stroke-width="7"/>
      <path id="Path_13312" data-name="Path 13312" d="M1117.708-343.579l-24.719,4.846A22.535,22.535,0,0,0,1075.266-312l6.54,31.245a5.785,5.785,0,0,1-.358,3.491l-2.486,5.718" transform="translate(-1073.971 585.895)" fill="none" stroke="#fff" stroke-linecap="round" stroke-miterlimit="10" stroke-width="7"/>
      <g id="Group_23250" data-name="Group 23250" transform="translate(11.908 105.261)">
        <path id="Path_13313" data-name="Path 13313" d="M1041.215-372.015c16.834-3.259,15.365-22.67,30.431-27.755a21.733,21.733,0,0,1,22.512,5.61c7.88,8.341,20.523,17.607,21.072,29.9a21.753,21.753,0,0,1-15.545,21.688,22.257,22.257,0,0,0-15.3,16.222,32.64,32.64,0,0,1-9.273,15.782l-6.01,5.678c-9.677,9.14-21.809,8.336-32.468,1.4-16.431-10.7-36.634-36.587-17.685-54.487l6.011-5.678A32.625,32.625,0,0,1,1041.215-372.015Z" transform="translate(-1011.299 472.838)" fill="#0f244e" stroke="#fff" stroke-linecap="round" stroke-miterlimit="10" stroke-width="1"/>
        <g id="Group_23249" data-name="Group 23249" transform="translate(30.594 0)">
          <rect id="Rectangle_4783" data-name="Rectangle 4783" width="15.028" height="162.71" transform="matrix(-0.687, -0.727, 0.727, -0.687, 10.32, 146.507)" fill="#0f244e" stroke="#fff" stroke-linecap="round" stroke-miterlimit="10" stroke-width="1"/>
          <line id="Line_468" data-name="Line 468" x1="113.905" y2="107.6" transform="translate(5.197 33.484)" fill="#0f1622" stroke="#fff" stroke-linecap="round" stroke-miterlimit="10" stroke-width="1"/>
          <g id="Group_23248" data-name="Group 23248" transform="translate(113.132)">
            <rect id="Rectangle_4784" data-name="Rectangle 4784" width="20.61" height="33.86" rx="8.356" transform="matrix(-0.687, -0.727, 0.727, -0.687, 14.153, 40.284)" fill="#0f244e" stroke="#fff" stroke-linecap="round" stroke-miterlimit="10" stroke-width="1"/>
            <circle id="Ellipse_896" data-name="Ellipse 896" cx="3.006" cy="3.006" r="3.006" transform="translate(12.175)" fill="#0f244e" stroke="#fff" stroke-linecap="round" stroke-miterlimit="10" stroke-width="1"/>
            <circle id="Ellipse_897" data-name="Ellipse 897" cx="3.006" cy="3.006" r="3.006" transform="translate(0.47 11.057)" fill="#0f244e" stroke="#fff" stroke-linecap="round" stroke-miterlimit="10" stroke-width="1"/>
            <circle id="Ellipse_898" data-name="Ellipse 898" cx="3.006" cy="3.006" r="3.006" transform="translate(6.322 5.529)" fill="#0f244e" stroke="#fff" stroke-linecap="round" stroke-miterlimit="10" stroke-width="1"/>
            <circle id="Ellipse_899" data-name="Ellipse 899" cx="3.006" cy="3.006" r="3.006" transform="translate(34.019 23.125)" fill="#0f244e" stroke="#fff" stroke-linecap="round" stroke-miterlimit="10" stroke-width="1"/>
            <circle id="Ellipse_900" data-name="Ellipse 900" cx="3.006" cy="3.006" r="3.006" transform="translate(22.314 34.182)" fill="#0f244e" stroke="#fff" stroke-linecap="round" stroke-miterlimit="10" stroke-width="1"/>
            <circle id="Ellipse_901" data-name="Ellipse 901" cx="3.006" cy="3.006" r="3.006" transform="translate(28.167 28.653)" fill="#0f244e" stroke="#fff" stroke-linecap="round" stroke-miterlimit="10" stroke-width="1"/>
          </g>
        </g>
        <circle id="Ellipse_902" data-name="Ellipse 902" cx="12.836" cy="12.836" r="12.836" transform="translate(43.83 108.096)" fill="#0f244e" stroke="#fff" stroke-linecap="round" stroke-miterlimit="10" stroke-width="1"/>
      </g>
      <rect id="Rectangle_4785" data-name="Rectangle 4785" width="137.187" height="8.373" rx="3.685" transform="translate(0 62.904)" fill="#0f244e" stroke="#fff" stroke-miterlimit="10" stroke-width="1"/>
    </g>
    <g id="Group_23252" data-name="Group 23252" transform="translate(200.7 -117.052)">
      <path id="Path_13314" data-name="Path 13314" d="M969.944-116.116v70.2c0,17.177-1,34.417-4.236,51.314-2.671,13.96-8.968,28.232-19.855,37.712q-.327.285-.658.562" transform="translate(-944.48 381.933)" fill="none" stroke="#fff" stroke-linecap="round" stroke-miterlimit="10" stroke-width="7"/>
      <g id="Group_23251" data-name="Group 23251" transform="translate(0 0)">
        <path id="Path_13315" data-name="Path 13315" d="M836.7-214.524h38.793c9.268-.172,14.492-8.777,17.736-16.481,4.415-10.482,8.155-21.315,12.374-31.889" transform="translate(-756.884 361.961)" fill="none" stroke="#fff" stroke-linecap="round" stroke-miterlimit="10" stroke-width="7"/>
        <path id="Path_13316" data-name="Path 13316" d="M908.133-329.18a18.606,18.606,0,0,1-.175-2.413,18.5,18.5,0,0,1,18.5-18.5,18.452,18.452,0,0,1,14.6,7.158h34.118a24.029,24.029,0,0,1-24.029,24.029,17.552,17.552,0,0,1-9.185-2.6,18.56,18.56,0,0,1-9.414,7.381,20.138,20.138,0,0,1,.516,4.472,20.127,20.127,0,0,1-20.128,20.126,20.126,20.126,0,0,1-20.126-20.126A20.117,20.117,0,0,1,908.133-329.18Z" transform="translate(-890.197 350.096)" fill="#dcfeff" stroke="#fff" stroke-miterlimit="10" stroke-width="1"/>
        <path id="Path_13317" data-name="Path 13317" d="M904.867-303.072h5.605V-307.8a23.42,23.42,0,0,1,23.351-23.352H943.8A23.42,23.42,0,0,1,967.15-307.8v4.725h0a10.414,10.414,0,0,1,10.413,10.413h0a10.413,10.413,0,0,1-10.413,10.412H967.1a28.43,28.43,0,0,1-28.294,26.77h0a28.428,28.428,0,0,1-28.292-26.77h-5.651a10.412,10.412,0,0,1-10.412-10.412h0A10.413,10.413,0,0,1,904.867-303.072Z" transform="translate(-894.455 352.674)" fill="#0f244e" stroke="#fff" stroke-miterlimit="10" stroke-width="1"/>
        <path id="Rectangle_4786" data-name="Rectangle 4786" d="M0,0H23.348a0,0,0,0,1,0,0V28.369A10.276,10.276,0,0,1,13.072,38.644h-2.8A10.276,10.276,0,0,1,0,28.369V0A0,0,0,0,1,0,0Z" transform="translate(89.804 138.764) rotate(120)" fill="#0f244e" stroke="#fff" stroke-linecap="round" stroke-miterlimit="10" stroke-width="1"/>
        <rect id="Rectangle_4787" data-name="Rectangle 4787" width="15.601" height="29.01" transform="translate(35.768 96.312)" fill="#0f244e" stroke="#fff" stroke-miterlimit="10" stroke-width="1"/>
        <path id="Rectangle_4788" data-name="Rectangle 4788" d="M28.622,0h7.789A28.622,28.622,0,0,1,65.032,28.622V135.873a0,0,0,0,1,0,0H0a0,0,0,0,1,0,0V28.622A28.622,28.622,0,0,1,28.622,0Z" transform="translate(10.412 116.223)" fill="#0f244e" stroke="#fff" stroke-miterlimit="10" stroke-width="1"/>
        <path id="Path_13318" data-name="Path 13318" d="M929.449-273.391h4.787a4.852,4.852,0,0,0,4.852-4.85c0-4.459-7.789-5.511-11.044-4.649a4.87,4.87,0,0,0-3.448,4.646A4.852,4.852,0,0,0,929.449-273.391Z" transform="translate(-890.224 359.203)" fill="#dcfeff" stroke="#fff" stroke-miterlimit="10" stroke-width="1"/>
        <path id="Path_13319" data-name="Path 13319" d="M868.55-214.524l29.438-.717a16.836,16.836,0,0,0,13.9-7.623q.271-.429.517-.877l21.589-39.153" transform="translate(-821.454 361.961)" fill="none" stroke="#fff" stroke-linecap="round" stroke-miterlimit="10" stroke-width="7"/>
        <path id="Path_13320" data-name="Path 13320" d="M940.275-116.116v70.2c0,17.177-1,34.417-4.235,51.314-2.672,13.96-8.969,28.232-19.856,37.712q-.327.285-.658.562" transform="translate(-881.105 381.933)" fill="none" stroke="#fff" stroke-linecap="round" stroke-miterlimit="10" stroke-width="7"/>
        <path id="Subtraction_13" data-name="Subtraction 13" d="M74.449,62.014H40.024A20,20,0,0,1,24.165,29.8H0V19.817H104.993v.1L125.916.469A1.845,1.845,0,0,1,127.145,0a1.9,1.9,0,0,1,1.894,1.887v46.8a1.9,1.9,0,0,1-1.9,1.887,1.84,1.84,0,0,1-1.262-.5L104.993,29.8H90.309a20.009,20.009,0,0,1-15.86,32.217ZM40.045,29.8A10.419,10.419,0,0,0,29.638,40.2v2.831A10.419,10.419,0,0,0,40.045,53.443H75.05A10.419,10.419,0,0,0,85.457,43.035V40.2A10.419,10.419,0,0,0,75.05,29.8Z" transform="translate(59.803 62.78)" fill="#0f244e" stroke="#fff" stroke-miterlimit="10" stroke-width="1"/>
        <circle id="Ellipse_903" data-name="Ellipse 903" cx="3.22" cy="3.22" r="3.22" transform="translate(115.526 71.246)" fill="#0f244e" stroke="#fff" stroke-linecap="round" stroke-miterlimit="10" stroke-width="1"/>
        <circle id="Ellipse_904" data-name="Ellipse 904" cx="3.22" cy="3.22" r="3.22" transform="translate(128.099 71.246)" fill="#0f244e" stroke="#fff" stroke-linecap="round" stroke-miterlimit="10" stroke-width="1"/>
        <circle id="Ellipse_905" data-name="Ellipse 905" cx="3.22" cy="3.22" r="3.22" transform="translate(102.795 71.246)" fill="#0f244e" stroke="#fff" stroke-linecap="round" stroke-miterlimit="10" stroke-width="1"/>
        <rect id="Rectangle_4790" data-name="Rectangle 4790" width="6.011" height="19.322" rx="2.646" transform="translate(54.446 77.875)" fill="#0f244e" stroke="#fff" stroke-linecap="round" stroke-miterlimit="10" stroke-width="1"/>
        <path id="Rectangle_4791" data-name="Rectangle 4791" d="M0,0H74.908a0,0,0,0,1,0,0V8.444A23.008,23.008,0,0,1,51.9,31.452H16.915A16.915,16.915,0,0,1,0,14.537V0A0,0,0,0,1,0,0Z" transform="translate(26.767 16.696)" fill="#dcfeff" stroke="#fff" stroke-miterlimit="10" stroke-width="1"/>
        <path id="Rectangle_4792" data-name="Rectangle 4792" d="M0,0H23.348a0,0,0,0,1,0,0V28.369A10.276,10.276,0,0,1,13.072,38.644h-2.8A10.276,10.276,0,0,1,0,28.369V0A0,0,0,0,1,0,0Z" transform="translate(46.795 130.932) rotate(93.661)" fill="#0f244e" stroke="#fff" stroke-linecap="round" stroke-miterlimit="10" stroke-width="1"/>
        <path id="Path_13322" data-name="Path 13322" d="M966.233-128.194A18.713,18.713,0,0,1,965-121.538h.019V-20.645c-6.756,5.035-17.917,3.6-30.544,0V-93.5h-.755v72.858c-8.757,4.837-19.258,3.752-30.543,0v-99.207a18.681,18.681,0,0,1-1.972-8.342Z" transform="translate(-890.789 380.289)" fill="#0f244e" stroke="#fff" stroke-miterlimit="10" stroke-width="1"/>
      </g>
    </g>
    <line id="Line_471" data-name="Line 471" y1="68.597" transform="translate(102.867 308.551)" fill="#0f1622" stroke="#fff" stroke-linecap="round" stroke-miterlimit="10" stroke-width="1"/>
    <g id="Group_23260" data-name="Group 23260" transform="translate(-7 296.83)">
      <line id="Line_469" data-name="Line 469" y2="45.236" transform="translate(50.142 212.587)" fill="#0f1622" stroke="#fff" stroke-linecap="round" stroke-miterlimit="10" stroke-width="1"/>
      <path id="Path_13323" data-name="Path 13323" d="M1238.309-260.06l-13.619,26.03a16.248,16.248,0,0,0,8.657,22.281h0" transform="translate(-1131.809 402.788)" fill="none" stroke="#fff" stroke-linecap="round" stroke-miterlimit="10" stroke-width="7"/>
      <path id="Path_13324" data-name="Path 13324" d="M1198.164-239.508l-19.47,20.234a8.734,8.734,0,0,1-13.854-1.684l-22.24-35.8" transform="translate(-1000.298 403.237)" fill="none" stroke="#fff" stroke-linecap="round" stroke-miterlimit="10" stroke-width="7"/>
      <path id="Path_13325" data-name="Path 13325" d="M1198.516-270.428a7.118,7.118,0,0,0-2.295,1.681l-9.725,8.816a6.026,6.026,0,0,0-.023,8.918l5.658,5.192v45.761l40.671.852V-247.32c.1-.2.193-.4.3-.591l3.26-1.886c4.215-2.431-.023-9.2-1.693-11.94-1.1-1.795-2.34-4.419-3.931-5.794a5.89,5.89,0,0,0-2.193-1.147" transform="translate(-1087.918 401.377)" fill="#0f244e" stroke="#fff" stroke-linecap="round" stroke-miterlimit="10" stroke-width="1"/>
      <path id="Path_13326" data-name="Path 13326" d="M1179.469-296.415V-333.9h52.993v33.622a28.43,28.43,0,0,1-24.48,28.15v6.849c5.407.992,9.179,3.2,9.179,5.771,0,3.5-6.969,6.334-15.565,6.334s-15.565-2.836-15.565-6.334c0-2.449,3.425-4.57,8.425-5.623v-8.656A24.568,24.568,0,0,1,1179.469-296.415Z" transform="translate(-1076.479 392.74)" fill="#0f244e" stroke="#fff" stroke-linecap="round" stroke-miterlimit="10" stroke-width="1"/>
      <rect id="Rectangle_4793" data-name="Rectangle 4793" width="62.051" height="74.571" rx="7.318" transform="translate(144.885 194.202)" fill="#dcfeff" stroke="#fff" stroke-linecap="round" stroke-miterlimit="10" stroke-width="1"/>
      <rect id="Rectangle_4794" data-name="Rectangle 4794" width="62.051" height="74.571" rx="7.318" transform="translate(78.63 194.202)" fill="#dcfeff" stroke="#fff" stroke-linecap="round" stroke-miterlimit="10" stroke-width="1"/>
      <ellipse id="Ellipse_906" data-name="Ellipse 906" cx="20.201" cy="54.021" rx="20.201" ry="54.021" transform="translate(147.466 193.511) rotate(-102.64)" fill="#0f244e" stroke="#fff" stroke-linecap="round" stroke-miterlimit="10" stroke-width="1"/>
      <line id="Line_470" data-name="Line 470" x2="60.936" y2="40.147" transform="translate(192.9 158.134)" fill="#0f1622" stroke="#fff" stroke-linecap="round" stroke-miterlimit="10" stroke-width="1"/>
      <ellipse id="Ellipse_907" data-name="Ellipse 907" cx="50.721" cy="10.406" rx="50.721" ry="10.406" transform="translate(0 194.791)" fill="#dcfeff" stroke="#fff" stroke-miterlimit="10" stroke-width="1"/>
      <rect id="Rectangle_4795" data-name="Rectangle 4795" width="224.484" height="100.857" rx="11.345" transform="translate(14.074 248.504)" fill="#0f244e" stroke="#fff" stroke-linecap="round" stroke-miterlimit="10" stroke-width="1"/>
      <rect id="Rectangle_4796" data-name="Rectangle 4796" width="54.053" height="62.904" rx="7.818" transform="translate(202.118 253.242)" fill="#0f244e" stroke="#fff" stroke-linecap="round" stroke-miterlimit="10" stroke-width="1"/>
      <circle id="Ellipse_908" data-name="Ellipse 908" cx="90.001" cy="90.001" r="90.001" transform="translate(50.087 226.145)" fill="#0f244e" stroke="#fff" stroke-miterlimit="10" stroke-width="1"/>
      <path id="Path_13327" data-name="Path 13327" d="M1161.04-149.133a62.79,62.79,0,0,0-23.776,49.255,62.905,62.905,0,0,0,62.905,62.9,62.9,62.9,0,0,0,62.9-62.9,62.9,62.9,0,0,0-62.9-62.9" transform="translate(-1059.143 416.024)" fill="none" stroke="#fff" stroke-linecap="round" stroke-miterlimit="10" stroke-width="7"/>
      <path id="Path_13328" data-name="Path 13328" d="M1149.329-336.345a17.133,17.133,0,0,1,14.419-16.907c0-.081-.011-.157-.011-.238a21.166,21.166,0,0,1,21.166-21.166,21.046,21.046,0,0,1,9.216,2.134,22.949,22.949,0,0,1,20.752-13.172,22.916,22.916,0,0,1,18.515,9.413,24.948,24.948,0,0,1,14.592-4.691,25.074,25.074,0,0,1,25.074,25.074c0,.386-.012.77-.029,1.152a18.058,18.058,0,0,1,9.9,16.107,18.065,18.065,0,0,1-9.52,15.921,16.342,16.342,0,0,1,3.509,10.125,16.425,16.425,0,0,1-16.424,16.424,16.411,16.411,0,0,1-14.765-9.265,15.091,15.091,0,0,1-12.511,6.638,15.1,15.1,0,0,1-13.761-8.893,10.091,10.091,0,0,1-8.825,5.194,10.072,10.072,0,0,1-7.915-3.84c.008.167.025.332.025.5a10.839,10.839,0,0,1-7.347,10.255,16.069,16.069,0,0,1,4.515,11.178,16.135,16.135,0,0,1-16.134,16.134A16.134,16.134,0,0,1,1167.64-284.4a16.037,16.037,0,0,1,3.128-9.52,16.41,16.41,0,0,1-9.355-14.807,16.35,16.35,0,0,1,3.832-10.537A17.131,17.131,0,0,1,1149.329-336.345Z" transform="translate(-1092.704 385.693)" fill="#0f244e" stroke="#fff" stroke-miterlimit="10" stroke-width="1"/>
      <ellipse id="Ellipse_909" data-name="Ellipse 909" cx="50.721" cy="10.406" rx="50.721" ry="10.406" transform="translate(0 185.385)" fill="#0f244e" stroke="#fff" stroke-linecap="round" stroke-miterlimit="10" stroke-width="1"/>
      <line id="Line_472" data-name="Line 472" y2="19.338" transform="translate(48.855 174.826)" fill="#0f1622" stroke="#fff" stroke-linecap="round" stroke-miterlimit="10" stroke-width="1"/>
      <path id="Rectangle_4797" data-name="Rectangle 4797" d="M3.117,0H37.48A3.117,3.117,0,0,1,40.6,3.117V6.6A22.514,22.514,0,0,1,18.082,29.119H13.22A13.22,13.22,0,0,1,0,15.9V3.117A3.117,3.117,0,0,1,3.117,0Z" transform="translate(116.877 92.264)" fill="#dcfeff" stroke="#fff" stroke-miterlimit="10" stroke-width="1"/>
      <g id="Group_23253" data-name="Group 23253" transform="translate(124.63 98.733)">
        <path id="Path_13329" data-name="Path 13329" d="M1200.942-288.626a15.711,15.711,0,0,0,6.629-1.514,3.408,3.408,0,0,0,1.652-4.527,3.408,3.408,0,0,0-4.528-1.654c-3.436,1.6-6.718,1.044-10.321-1.75a3.408,3.408,0,0,0-4.781.606,3.408,3.408,0,0,0,.605,4.782A17.356,17.356,0,0,0,1200.942-288.626Z" transform="translate(-1188.876 298.786)" fill="#0f244e" stroke="#fff" stroke-linecap="round" stroke-miterlimit="10" stroke-width="1"/>
      </g>
    </g>
  </g>
</svg>
